<svg width="800" height="800" viewBox="0 0 800 800" fill="none" xmlns="http://www.w3.org/2000/svg">
<path d="M307.673 184.608C409.627 184.608 613.852 101.959 613.852 0H615.361C615.361 81.603 582.946 159.864 525.244 217.567C467.544 275.27 389.285 307.689 307.681 307.692C258.72 307.692 211.762 327.142 177.139 361.763C142.516 396.384 123.066 443.342 123.066 492.304C123.054 541.265 142.497 588.23 177.112 622.857C211.727 657.488 258.681 676.946 307.643 676.957C356.608 676.965 403.57 657.523 438.198 622.907C472.827 588.292 492.287 541.338 492.297 492.377C492.298 451.969 500.258 411.957 515.722 374.628C531.186 337.297 553.851 303.378 582.424 274.806C610.997 246.235 644.918 223.572 682.25 208.11C719.581 192.648 759.593 184.691 800 184.693V186.19C698.06 186.19 615.411 390.327 615.373 492.3H615.392C615.392 553.157 597.348 612.646 563.539 663.246C529.731 713.846 481.677 753.284 425.454 776.573C369.231 799.865 307.366 805.961 247.677 794.088C187.993 782.219 133.166 752.915 90.1313 709.888C47.1006 666.857 17.7928 612.034 5.91593 552.346C-5.96099 492.661 0.131328 430.796 23.4159 374.571C46.7005 318.346 86.1351 270.289 136.731 236.476C187.331 202.663 246.82 184.613 307.673 184.608Z" fill="url(#paint0_linear_2_7)"/>
<defs>
<linearGradient id="paint0_linear_2_7" x1="162.4" y1="692" x2="627.2" y2="53.6001" gradientUnits="userSpaceOnUse">
<stop offset="0.295" stop-color="#E73959"/>
<stop offset="0.384" stop-color="#E73D58"/>
<stop offset="0.477" stop-color="#E74955"/>
<stop offset="0.571" stop-color="#E95E51"/>
<stop offset="0.666" stop-color="#EA7B4B"/>
<stop offset="0.761" stop-color="#EDA044"/>
<stop offset="0.857" stop-color="#EFCE3B"/>
<stop offset="0.868" stop-color="#F0D43A"/>
</linearGradient>
</defs>
</svg>
